<?xml version="1.0" encoding="utf-8"?>
<!-- Generator: Adobe Illustrator 26.4.0, SVG Export Plug-In . SVG Version: 6.00 Build 0)  -->
<svg version="1.1" id="Layer_1" xmlns="http://www.w3.org/2000/svg" xmlns:xlink="http://www.w3.org/1999/xlink" x="0px" y="0px"
	 viewBox="0 0 300 300" style="enable-background:new 0 0 300 300;" xml:space="preserve">
<style type="text/css">
	.st0{fill:#C1164F;}
	.st1{fill:#FFFFFF;}
</style>
<g>
	<g>
		<circle class="st0" cx="150" cy="150" r="150"/>
	</g>
	<g>
		<path class="st1" d="M78.7,110l50.9,61.8l-28.2,9.2l-9.2-11.2l-23.9,7l0.7,14.8L31,204l1-87L78.7,110z M67.4,157.1l12.1-3
			l-13-16.2l-0.2,0L67.4,157.1z"/>
		<path class="st1" d="M127.7,102.5l20.9,44.8l19.2-5.4l7.2,14.9l-43.6,14.3l-28.8-64.8L127.7,102.5z"/>
		<path class="st1" d="M200.3,109.2c1.6,3,2.5,6,2.8,8.8c0.2,2.9-0.2,5.4-1.3,7.4c-1.2,2.1-2.9,3.4-5.2,4c-1.6,0.4-3.3,0.5-5,0.1
			c-1.8-0.4-4-1.2-6.6-2.4l11.5,22.7l-19.3,6.3l-27.7-57l27-4.1c1.5-0.2,3-0.3,4.5-0.2c1.5,0.1,3,0.4,4.4,0.9
			c1.5,0.5,2.9,1.1,4.3,1.9c1.4,0.8,2.8,1.8,4.1,3C196.4,103.2,198.6,106,200.3,109.2z M180.7,118.9c0.6,0.1,1.2,0,1.7-0.1
			c0.7-0.2,1.2-0.4,1.6-0.8c0.4-0.4,0.7-0.9,0.8-1.5c0.1-0.6,0.1-1.3,0-2.1c-0.2-0.8-0.5-1.6-0.9-2.5c-0.9-1.8-2-3.1-3.2-3.9
			c-1.2-0.9-2.5-1.2-3.8-0.9l-2,0.4L180.7,118.9z"/>
		<path class="st1" d="M208.8,90.2l9.1,16.9l7.3-1.5l-9-16.5l13.6-2.1l24.6,43.9l-13,4.2l-9.6-17.5l-7.2,1.9l9.8,18l-15,4.9
			l-26.2-49.8L208.8,90.2z"/>
		<path class="st1" d="M256.7,82.9l31,37.1l-9.9,3.2l-5.4-6.6l-8,2.4l2.7,7.7l-11.8,3.9l-14.8-45.2L256.7,82.9z M260.7,108.6l4.1-1
			l-7.8-9.5l-0.1,0L260.7,108.6z"/>
	</g>
</g>
</svg>
